<svg width="16" height="16" viewBox="0 0 16 16" fill="none" xmlns="http://www.w3.org/2000/svg">
  <path d="M4 1.75C3.30964 1.75 2.75 2.30964 2.75 3V13C2.75 13.6904 3.30964 14.25 4 14.25H12C12.6904 14.25 13.25 13.6904 13.25 13V5.5L9.5 1.75H4Z" stroke="currentColor" stroke-width="1.25" stroke-linejoin="round"/>
  <path d="M9.25 1.75V5.75H13.25" stroke="currentColor" stroke-width="1.25" stroke-linejoin="round"/>
  <path d="M5.1 8.5C5.45 8.25 5.9 8.12 6.45 8.12C7.25 8.12 7.75 8.45 7.75 8.95C7.75 9.42 7.37 9.62 6.64 9.78C5.84 9.96 5.18 10.2 5.18 10.98C5.18 11.72 5.85 12.2 6.75 12.2C7.35 12.2 7.9 12.03 8.3 11.7" stroke="currentColor" stroke-width="0.85" stroke-linecap="round"/>
  <path d="M9.15 8.2V11.7H10.95" stroke="currentColor" stroke-width="0.85" stroke-linecap="round" stroke-linejoin="round"/>
</svg>
