<svg xmlns="http://www.w3.org/2000/svg" width="24" height="24" viewBox="0 0 432 445" fill="none">
  <g stroke="#000" stroke-width="30" stroke-linecap="round" stroke-linejoin="round">
    <path d="M215.866 286.484c-1.385 49.516.348 99.377 5.193 111.495 4.848 12.118 15.223 35.688 50.9 28.045 29.806-6.39 40.651-18.756 45.357-46.05 3.466-20.083 10.148-75.855 11.005-87.282"/>
    <path d="M173.104 38.256S11.583-27.76 19.092 122.366c1.597 31.937 45.779 241.663 98.473 178.315 19.256-23.166 36.671-41.335 36.671-41.335"/>
    <path d="M260.349 26.207c-5.591 1.753 89.848-34.889 144.087 34.417 19.159 24.484-3.043 124.52-56.153 203.33"/>
    <path stroke-linejoin="bevel" d="M348.282 263.953s3.461 17.036 53.764 6.653c22.04-4.552 8.776 12.774-13.577 23.155-18.345 8.514-59.474 10.696-60.146-1.069-1.729-30.355 21.647-21.133 19.96-28.739-1.525-6.85-11.979-13.573-18.894-30.338-6.037-14.633-82.796-126.849 21.287-110.183 3.813-.789-27.146-99.002-124.553-100.599-97.385-1.597-94.19 119.762-94.19 119.762"/>
    <path d="M188.604 274.334c-13.577 15.166-9.584 17.83-36.723 23.417-27.459 5.66-11.326 15.733-.797 18.365 12.768 3.195 42.307 7.718 62.266-20.229 6.078-8.509-.036-22.086-8.385-25.547-4.034-1.67-9.428-3.765-16.361 3.994z"/>
    <path d="M187.715 274.07c-1.368-8.918 2.93-19.529 7.536-31.943 6.922-18.626 22.893-37.255 10.117-96.339-9.523-44.029-73.396-9.163-73.436-3.193-.039 5.968 2.889 30.26-1.067 58.548-5.162 36.913 23.488 68.132 56.479 64.938"/>
    <path d="M350.676 123.432c.863 15.994-3.445 26.888-3.988 43.914-.804 24.748 11.799 53.074-7.191 81.435"/>
  </g>
  <path fill="#000" d="M172.517 141.7c-.288 2.04 3.733 7.48 8.976 8.207 5.234.73 9.714-3.522 9.998-5.559.284-2.039-3.732-4.285-8.977-5.015-5.237-.73-9.719.333-9.996 2.367z"/>
  <path fill="#000" d="M331.941 137.543c.284 2.04-3.732 7.48-8.976 8.207-5.238.73-9.718-3.522-10.005-5.559-.277-2.039 3.74-4.285 8.979-5.015 5.239-.73 9.718.333 10.002 2.368z"/>
</svg>
