<?xml version="1.0" standalone="no"?>
<!DOCTYPE svg PUBLIC "-//W3C//DTD SVG 20010904//EN"
 "http://www.w3.org/TR/2001/REC-SVG-20010904/DTD/svg10.dtd">
<svg version="1.0" xmlns="http://www.w3.org/2000/svg"
 width="32.000000pt" height="32.000000pt" viewBox="0 0 32.000000 32.000000"
 preserveAspectRatio="xMidYMid meet">

<g transform="translate(0.000000,32.000000) scale(0.100000,-0.100000)"
fill="#000000" stroke="none">
<path d="M149 261 c-21 -21 -29 -39 -29 -63 0 -26 -9 -43 -40 -73 -47 -46 -54
-85 -15 -85 16 0 25 6 25 15 0 8 7 15 15 15 8 0 15 7 15 15 0 8 6 15 14 15 7
0 19 6 25 13 6 8 23 12 40 9 38 -5 91 43 91 83 0 35 -50 85 -85 85 -16 0 -38
-12 -56 -29z m106 -6 c32 -31 32 -69 -1 -102 -19 -19 -33 -24 -55 -21 -17 3
-34 -1 -40 -9 -6 -7 -20 -13 -30 -13 -11 0 -19 -7 -19 -15 0 -8 -7 -15 -15
-15 -8 0 -15 -7 -15 -15 0 -8 -7 -15 -15 -15 -28 0 -15 36 28 78 36 35 43 48
39 72 -3 21 3 35 21 54 33 33 71 33 102 1z"/>
<path d="M198 242 c-4 -15 -14 -22 -29 -22 -22 0 -22 -1 -4 -14 11 -8 16 -19
12 -30 -7 -18 8 -22 19 -5 4 8 9 8 17 0 16 -16 27 -13 20 5 -4 11 1 22 12 30
18 13 18 14 -3 14 -14 0 -26 8 -31 22 l-8 22 -5 -22z m25 -48 c-3 -7 -10 -12
-16 -11 -18 3 -27 21 -15 28 17 11 38 -1 31 -17z"/>
</g>
</svg>
