<?xml version="1.0" standalone="no"?>
<!DOCTYPE svg PUBLIC "-//W3C//DTD SVG 20010904//EN"
 "http://www.w3.org/TR/2001/REC-SVG-20010904/DTD/svg10.dtd">
<svg version="1.0" xmlns="http://www.w3.org/2000/svg"
 width="32.000000pt" height="32.000000pt" viewBox="0 0 32.000000 32.000000"
 preserveAspectRatio="xMidYMid meet">

<g transform="translate(0.000000,32.000000) scale(0.100000,-0.100000)"
fill="#000000" stroke="none">
<path d="M73 293 c-10 -3 -13 -40 -13 -133 0 -107 3 -129 16 -134 9 -3 54 -6
101 -6 l85 0 -3 140 -4 140 -85 -1 c-47 0 -91 -3 -97 -6z m167 -23 c0 -18 -7
-20 -79 -20 -76 0 -100 8 -86 30 3 6 42 10 86 10 72 0 79 -2 79 -20z m10 -135
l0 -106 -87 3 -88 3 -3 103 -3 102 91 0 90 0 0 -105z"/>
<path d="M144 188 c-47 -21 -47 -84 0 -105 44 -21 94 29 74 73 -13 29 -47 44
-74 32z m57 -29 c18 -34 -4 -71 -38 -67 -34 4 -54 48 -33 72 18 23 57 20 71
-5z"/>
<path d="M144 145 c-4 -9 -2 -21 4 -27 15 -15 44 -1 40 19 -4 23 -36 29 -44 8z
m36 -10 c0 -8 -7 -15 -15 -15 -8 0 -15 7 -15 15 0 8 7 15 15 15 8 0 15 -7 15
-15z"/>
</g>
</svg>
