<?xml version="1.0" encoding="UTF-8"?>
<svg version="1.1" xmlns="http://www.w3.org/2000/svg" width="225" height="225">
<path d="M0 0 C74.25 0 148.5 0 225 0 C225 74.25 225 148.5 225 225 C150.75 225 76.5 225 0 225 C0 150.75 0 76.5 0 0 Z " fill="#F38433" transform="translate(0,0)"/>
<path d="M0 0 C74.25 0 148.5 0 225 0 C225 74.25 225 148.5 225 225 C150.75 225 76.5 225 0 225 C0 150.75 0 76.5 0 0 Z M195.75 8.5 C194.67234375 8.7784375 193.5946875 9.056875 192.484375 9.34375 C191.66453125 9.5603125 190.8446875 9.776875 190 10 C190 12.31 190 14.62 190 17 C189.3709375 16.69964844 188.741875 16.39929687 188.09375 16.08984375 C177.80485355 11.51872259 173.15793837 13.65261849 162 17 C162 26.9 162 36.8 162 47 C159.793125 46.484375 157.58625 45.96875 155.3125 45.4375 C146.2601679 43.49806994 138.05547394 44.18890521 129 46 C129 36.43 129 26.86 129 17 C126.36 16.01 123.72 15.02 121 14 C120.030625 13.5875 119.06125 13.175 118.0625 12.75 C109.9500779 10.76328438 103.72631329 13.90947468 96 17 C96 33.83 96 50.66 96 68 C94.02 67.67 92.04 67.34 90 67 C87.25936221 66.90709702 84.55167537 66.85775505 81.8125 66.875 C81.06943604 66.87693359 80.32637207 66.87886719 79.56079102 66.88085938 C73.66153377 66.92682264 67.86485072 67.33917175 62 68 C62 63.05 62 58.1 62 53 C49.06898824 50.41379765 41.68936359 51.26212728 28 54 C28 65.55 28 77.1 28 89 C21.07 89 14.14 89 7 89 C7 99.23 7 109.46 7 120 C15.19879219 121.7502744 15.19879219 121.7502744 23.125 122.125 C24.52105469 122.09792969 24.52105469 122.09792969 25.9453125 122.0703125 C26.62335937 122.04710938 27.30140625 122.02390625 28 122 C28 122.66 28 123.32 28 124 C37.25071331 126.47077875 46.55587078 128.70455433 56 126 C56 126.99 56 127.98 56 129 C55.20835449 129.04825928 54.41670898 129.09651855 53.60107422 129.14624023 C43.40347249 129.81642656 33.27666621 130.90460416 23.125 132.0625 C21.45445636 132.25091084 19.78388358 132.43906342 18.11328125 132.62695312 C14.07511793 133.08119647 10.03760344 133.5406959 6 134 C6 144.23 6 154.46 6 165 C7.96042236 165.97759277 9.92084473 166.95518555 11.94067383 167.96240234 C18.49935729 171.23336933 25.05687838 174.50666151 31.61386585 177.78102684 C35.58000907 179.76151569 39.54651137 181.74127743 43.51391602 183.71923828 C60.09510031 191.98646955 76.66547575 200.2519042 93 209 C96.28287399 210.74685522 99.57187246 212.47931119 102.875 214.1875 C103.97134766 214.7762793 103.97134766 214.7762793 105.08984375 215.37695312 C105.80011719 215.74111328 106.51039062 216.10527344 107.2421875 216.48046875 C107.8491748 216.79910889 108.45616211 217.11774902 109.08154297 217.44604492 C114.3813704 218.97637178 119.53473951 215.4347539 124.1328125 213.09765625 C124.92412567 212.70106308 125.71543884 212.30446991 126.5307312 211.89585876 C128.21151301 211.05210848 129.89085391 210.20548263 131.56884766 209.35620117 C134.0650806 208.09282597 136.56523455 206.8375484 139.06640625 205.58398438 C147.1879717 201.50329314 155.26634877 197.35077035 163.296875 193.09375 C174.14278553 187.34793906 185.13229132 181.89561566 196.125 176.4375 C200.06624673 174.48015108 204.00615949 172.52015214 207.9453125 170.55859375 C208.84299347 170.11390244 209.74067444 169.66921112 210.66555786 169.21104431 C211.89482498 168.59888817 211.89482498 168.59888817 213.14892578 167.97436523 C213.87105255 167.61592026 214.59317932 167.25747528 215.33718872 166.88816833 C216.98573634 166.11111816 216.98573634 166.11111816 218 165 C218.08790975 162.70848583 218.10694038 160.41427476 218.09765625 158.12109375 C218.0962413 157.4344313 218.09482635 156.74776886 218.09336853 156.04029846 C218.08775479 153.83932199 218.07520007 151.63844591 218.0625 149.4375 C218.05748676 147.94856917 218.05292355 146.45963676 218.04882812 144.97070312 C218.03778093 141.31376925 218.02050713 137.65689442 218 134 C217.35675781 133.91959473 216.71351563 133.83918945 216.05078125 133.75634766 C214.12637219 133.51579652 212.2019755 133.27514644 210.27758789 133.03442383 C208.08155144 132.7601033 205.88542401 132.48651017 203.68920898 132.21362305 C198.8438658 131.61076267 193.99937193 131.00588423 189.16015625 130.35546875 C182.39415991 129.45354396 175.83344411 128.75594842 169 129 C169 128.01 169 127.02 169 126 C169.66 126.33 170.32 126.66 171 127 C180.07368375 127.71381476 188.268782 126.4007277 197 124 C197 123.34 197 122.68 197 122 C198.2375 122.04125 199.475 122.0825 200.75 122.125 C207.16367375 122.09562767 207.16367375 122.09562767 218 120 C218 84.69 218 49.38 218 13 C206.43578732 6.68979669 206.43578732 6.68979669 195.75 8.5 Z " fill="#FEFDFD" transform="translate(0,0)"/>
<path d="M0 0 C9.20504687 2.07823195 17.64647371 1.65599525 26.9375 0.4375 C26.9375 2.4175 26.9375 4.3975 26.9375 6.4375 C27.65035156 6.49808594 28.36320312 6.55867187 29.09765625 6.62109375 C30.05542969 6.70488281 31.01320313 6.78867188 32 6.875 C33.01191406 6.96265625 34.02382812 7.0503125 35.06640625 7.140625 C37.9375 7.4375 37.9375 7.4375 41.4375 8.125 C45.66982346 8.50288602 49.25213353 7.79321476 53.38671875 6.91015625 C55.9375 6.4375 55.9375 6.4375 59.9375 6.4375 C59.9375 4.4575 59.9375 2.4775 59.9375 0.4375 C61.79375 0.685 61.79375 0.685 63.6875 0.9375 C73.97946266 2.00493266 82.96642844 1.29820374 92.99951172 -1.1394043 C103.41172248 -3.59428911 112.80681333 -2.18040136 123.3125 -0.625 C125.81994963 -0.25922255 128.32775925 0.10409636 130.8359375 0.46484375 C131.93599121 0.62718506 133.03604492 0.78952637 134.16943359 0.95678711 C139.07702874 1.58287593 144.01044708 1.9895861 148.9375 2.4375 C148.9375 12.6675 148.9375 22.8975 148.9375 33.4375 C134.44152322 41.13151845 119.82530539 48.53695332 105.12597656 55.83300781 C92.99066342 61.86053718 80.93445825 68.00937951 68.96569824 74.36138916 C64.34628156 76.81233516 59.7146031 79.23673607 55.0625 81.625 C54.14082031 82.11291016 53.21914062 82.60082031 52.26953125 83.10351562 C51.37878906 83.55791016 50.48804687 84.01230469 49.5703125 84.48046875 C48.79574707 84.88289795 48.02118164 85.28532715 47.22314453 85.69995117 C41.92198549 87.41056872 37.34675631 84.34995759 32.6796875 81.97265625 C31.97715851 81.62045517 31.27462952 81.26825409 30.55081177 80.90538025 C29.05834229 80.15578766 27.56731341 79.40332086 26.07763672 78.64819336 C23.87109869 77.52970356 21.66068247 76.41925981 19.44921875 75.31054688 C11.90768796 71.51896103 4.4144252 67.64573394 -3.04296875 63.69140625 C-15.00635304 57.35602496 -27.13332028 51.34772807 -39.25 45.3125 C-41.57236013 44.15383524 -43.89462634 42.9949822 -46.21679688 41.8359375 C-51.83078531 39.03394684 -57.44666707 36.23580397 -63.0625 33.4375 C-63.0625 23.2075 -63.0625 12.9775 -63.0625 2.4375 C-60.5565625 2.16035156 -58.050625 1.88320312 -55.46875 1.59765625 C-53.01951632 1.32638775 -50.57030407 1.05492657 -48.12109375 0.78344727 C-46.42970977 0.59607162 -44.73830388 0.40889369 -43.046875 0.22192383 C-40.60410755 -0.04813448 -38.16142196 -0.31892326 -35.71875 -0.58984375 C-34.59950134 -0.7133445 -34.59950134 -0.7133445 -33.4576416 -0.83934021 C-29.86847396 -1.23809479 -26.28486992 -1.6594613 -22.70361328 -2.12426758 C-14.95003789 -3.05746242 -7.5589477 -1.74692001 0 0 Z " fill="#F48434" transform="translate(69.0625,131.5625)"/>
<path d="M0 0 C0 42.24 0 84.48 0 128 C-12 127 -12 127 -16 126 C-16 124.02 -16 122.04 -16 120 C-17.258125 120.33 -18.51625 120.66 -19.8125 121 C-32.24730766 123.64815348 -43.81727411 120.6925525 -56 118 C-56 116.68 -56 115.36 -56 114 C-56.55816406 114.15984375 -57.11632813 114.3196875 -57.69140625 114.484375 C-66.61538328 116.47754754 -75.35611847 114.30869968 -84 112 C-84 111.34 -84 110.68 -84 110 C-84.67804688 110.02320312 -85.35609375 110.04640625 -86.0546875 110.0703125 C-87.45074219 110.09738281 -87.45074219 110.09738281 -88.875 110.125 C-89.77992187 110.14820312 -90.68484375 110.17140625 -91.6171875 110.1953125 C-96.13023039 109.9347442 -100.56722739 108.88655452 -105 108 C-105 97.77 -105 87.54 -105 77 C-98.07 77 -91.14 77 -84 77 C-84 65.45 -84 53.9 -84 42 C-70.31063641 39.26212728 -62.93101176 38.41379765 -50 41 C-50 45.95 -50 50.9 -50 56 C-48.535625 55.835 -47.07125 55.67 -45.5625 55.5 C-40.42915779 55.03333253 -35.33782785 54.88840213 -30.1875 54.875 C-29.47086182 54.87048828 -28.75422363 54.86597656 -28.01586914 54.86132812 C-23.82047911 54.87304573 -20.19032424 55.30161263 -16 56 C-16 39.17 -16 22.34 -16 5 C-3.5 0 -3.5 0 0 0 Z " fill="#9D5024" transform="translate(112,12)"/>
<path d="M0 0 C9 2 9 2 17 5 C17 14.57 17 24.14 17 34 C20.96 33.34 24.92 32.68 29 32 C36.42739265 32.33010634 42.57407725 33.51481545 50 35 C50 25.1 50 15.2 50 5 C50.33 5 50.66 5 51 5 C51 15.23 51 25.46 51 36 C53.97 36.495 53.97 36.495 57 37 C57 63.73 57 90.46 57 118 C30.45588235 123.58823529 30.45588235 123.58823529 17 120 C17 121.98 17 123.96 17 126 C14.56421213 126.53030068 12.12694025 127.04952312 9.6875 127.5625 C8.99720703 127.71396484 8.30691406 127.86542969 7.59570312 128.02148438 C4.24455934 128.71761569 2.30465928 129.10155309 -1 128 C-0.67 85.76 -0.34 43.52 0 0 Z " fill="#F28333" transform="translate(112,12)"/>
<path d="M0 0 C9.26352632 2.19441659 18.35995834 4.84927838 27.45703125 7.640625 C28.93169693 8.09065866 30.40644553 8.54042068 31.88127136 8.9899292 C35.74470073 10.16822507 39.60702933 11.35008834 43.46911621 12.53277588 C47.32447088 13.71275902 51.18081646 14.88949371 55.03710938 16.06640625 C59.52886646 17.43736056 64.02044053 18.8088981 68.51101685 20.18371582 C75.10045869 22.20082717 81.69134793 24.21216238 88.29052734 26.19726562 C89.37516769 26.52426453 90.45980804 26.85126343 91.57731628 27.18817139 C93.55934871 27.78497271 95.54214338 28.37925075 97.52583313 28.97052002 C98.37799911 29.22742615 99.2301651 29.48433228 100.1081543 29.74902344 C100.8425322 29.96862732 101.5769101 30.1882312 102.33354187 30.41448975 C104 31 104 31 105 32 C105.09326716 33.56547048 105.11745582 35.13512772 105.11352539 36.70336914 C105.11341209 38.20481224 105.11341209 38.20481224 105.11329651 39.73658752 C105.10813522 40.8251152 105.10297394 41.91364288 105.09765625 43.03515625 C105.0962413 44.14354355 105.09482635 45.25193085 105.09336853 46.39390564 C105.08775033 49.95013069 105.07519475 53.50629383 105.0625 57.0625 C105.05748734 59.46679597 105.05292403 61.87109292 105.04882812 64.27539062 C105.03777499 70.18361504 105.02101917 76.0918031 105 82 C100.65950319 81.22424685 97.08700296 79.7468145 93.1796875 77.75390625 C92.5215506 77.42390121 91.8634137 77.09389618 91.18533325 76.75389099 C89.78701979 76.05137733 88.39014674 75.34599027 86.99462891 74.63793945 C84.93293641 73.59189529 82.86739156 72.55386612 80.80078125 71.51757812 C73.49499003 67.84311705 66.24065587 64.08059755 59.015625 60.25 C47.40715934 54.1036087 35.63765381 48.28158648 23.875 42.4375 C19.55875536 40.29264677 15.24383905 38.14515327 10.9296875 35.99609375 C9.45192337 35.26343544 9.45192337 35.26343544 7.94430542 34.51597595 C7.044711 34.06783035 6.14511658 33.61968475 5.21826172 33.15795898 C4.42507538 32.76398422 3.63188904 32.37000946 2.81466675 31.96409607 C1 31 1 31 0 30 C-0.08783542 27.78144736 -0.10694609 25.56011504 -0.09765625 23.33984375 C-0.0962413 22.67537735 -0.09482635 22.01091095 -0.09336853 21.3263092 C-0.08775518 19.19666101 -0.07520054 17.06711661 -0.0625 14.9375 C-0.05748671 13.49674631 -0.05292351 12.05599097 -0.04882812 10.61523438 C-0.03778145 7.07678898 -0.02050792 3.53840461 0 0 Z " fill="#9C4F24" transform="translate(7,135)"/>
<path d="M0 0 C9.20504687 2.07823195 17.64647371 1.65599525 26.9375 0.4375 C26.9375 2.4175 26.9375 4.3975 26.9375 6.4375 C27.65035156 6.49808594 28.36320312 6.55867187 29.09765625 6.62109375 C30.05542969 6.70488281 31.01320313 6.78867188 32 6.875 C33.01191406 6.96265625 34.02382812 7.0503125 35.06640625 7.140625 C37.9375 7.4375 37.9375 7.4375 41.4375 8.125 C45.66982346 8.50288602 49.25213353 7.79321476 53.38671875 6.91015625 C55.9375 6.4375 55.9375 6.4375 59.9375 6.4375 C59.9375 4.4575 59.9375 2.4775 59.9375 0.4375 C61.79375 0.685 61.79375 0.685 63.6875 0.9375 C73.97946266 2.00493266 82.96642844 1.29820374 92.99951172 -1.1394043 C103.41172248 -3.59428911 112.80681333 -2.18040136 123.3125 -0.625 C131.84424695 0.61957958 140.33876531 1.77290102 148.9375 2.4375 C145.97661967 5.39838033 142.25617134 5.99821087 138.32421875 7.1328125 C137.4269809 7.39761414 136.52974304 7.66241577 135.60531616 7.9352417 C132.61360812 8.81700359 129.61937917 9.6898559 126.625 10.5625 C122.3559163 11.81480929 118.08803834 13.07119704 113.8203125 14.328125 C112.70449295 14.65614105 111.5886734 14.9841571 110.43904114 15.32211304 C102.04270055 17.79719105 93.67049494 20.34567615 85.3046875 22.921875 C82.89368511 23.66145548 80.48263413 24.40087757 78.0715332 25.14013672 C74.55042749 26.21989615 71.03055155 27.30299077 67.51400757 28.39752197 C64.23238187 29.41827105 60.94680459 30.42524887 57.66015625 31.4296875 C56.69121429 31.73525574 55.72227234 32.04082397 54.72396851 32.35565186 C53.8135379 32.63128967 52.9031073 32.90692749 51.96508789 33.19091797 C50.79206871 33.55393509 50.79206871 33.55393509 49.59535217 33.92428589 C42.99181304 35.1993867 37.43170287 34.33746764 31.09472656 32.32958984 C30.35515213 32.10514191 29.6155777 31.88069397 28.85359192 31.64944458 C26.42508225 30.90960137 24.00174423 30.15413158 21.578125 29.3984375 C19.86657544 28.87373444 18.15471621 28.35004052 16.44256592 27.82730103 C11.93616913 26.44858378 7.43396308 25.05665235 2.93255615 23.66174316 C-1.58038207 22.26556701 -6.09690977 20.88111549 -10.61328125 19.49609375 C-15.72903329 17.92671603 -20.84445521 16.35635471 -25.95697021 14.77645874 C-27.52696025 14.29150896 -29.09696735 13.80661443 -30.66699219 13.32177734 C-31.42494961 13.08763311 -32.18290703 12.85348888 -32.96383286 12.61224937 C-39.87559493 10.48303598 -46.80426249 8.41100746 -53.74012375 6.36171532 C-54.53819065 6.12436983 -55.33625755 5.88702435 -56.1585083 5.64248657 C-56.86529346 5.43350046 -57.57207863 5.22451435 -58.30028152 5.00919533 C-60.0625 4.4375 -60.0625 4.4375 -62.0625 3.4375 C-62.0625 13.3375 -62.0625 23.2375 -62.0625 33.4375 C-62.3925 33.4375 -62.7225 33.4375 -63.0625 33.4375 C-63.0625 23.2075 -63.0625 12.9775 -63.0625 2.4375 C-60.5565625 2.16035156 -58.050625 1.88320312 -55.46875 1.59765625 C-53.01951632 1.32638775 -50.57030407 1.05492657 -48.12109375 0.78344727 C-46.42970977 0.59607162 -44.73830388 0.40889369 -43.046875 0.22192383 C-40.60410755 -0.04813448 -38.16142196 -0.31892326 -35.71875 -0.58984375 C-34.59950134 -0.7133445 -34.59950134 -0.7133445 -33.4576416 -0.83934021 C-29.86847396 -1.23809479 -26.28486992 -1.6594613 -22.70361328 -2.12426758 C-14.95003789 -3.05746242 -7.5589477 -1.74692001 0 0 Z " fill="#FABE91" transform="translate(69.0625,131.5625)"/>
<path d="M0 0 C0 5.28 0 10.56 0 16 C-1.98 16 -3.96 16 -6 16 C-6 34.81 -6 53.62 -6 73 C-15.66087449 75.41521862 -24.53141052 73.52897144 -34 71 C-34 70.34 -34 69.68 -34 69 C-34.67804687 69.02320312 -35.35609375 69.04640625 -36.0546875 69.0703125 C-37.45074219 69.09738281 -37.45074219 69.09738281 -38.875 69.125 C-39.77992187 69.14820312 -40.68484375 69.17140625 -41.6171875 69.1953125 C-46.13023039 68.9347442 -50.56722739 67.88655452 -55 67 C-55 56.77 -55 46.54 -55 36 C-48.07 36 -41.14 36 -34 36 C-34 24.45 -34 12.9 -34 1 C-20.31063641 -1.73787272 -12.93101176 -2.58620235 0 0 Z " fill="#9D5024" transform="translate(62,53)"/>
<path d="M0 0 C0.33 0 0.66 0 1 0 C1 10.23 1 20.46 1 31 C2.98 31.33 4.96 31.66 7 32 C7 58.73 7 85.46 7 113 C-12 117 -12 117 -18 117 C-18 87.3 -18 57.6 -18 27 C-9 28.5 -9 28.5 0 30 C0 20.1 0 10.2 0 0 Z " fill="#F48535" transform="translate(162,17)"/>
<path d="M0 0 C0 42.24 0 84.48 0 128 C-12 127 -12 127 -16 126 C-16 86.07 -16 46.14 -16 5 C-3.5 0 -3.5 0 0 0 Z " fill="#9C4F24" transform="translate(112,12)"/>
<path d="M0 0 C6.435 2.97 6.435 2.97 13 6 C13 41.31 13 76.62 13 113 C6.565 113.99 6.565 113.99 0 115 C0 77.05 0 39.1 0 0 Z " fill="#F58432" transform="translate(205,7)"/>
<path d="M0 0 C0 37.62 0 75.24 0 114 C-8 114 -8 114 -10 113 C-10 87.59 -10 62.18 -10 36 C-11.98 35.67 -13.96 35.34 -16 35 C-16 24.77 -16 14.54 -16 4 C-4 0 -4 0 0 0 Z " fill="#9C4F24" transform="translate(179,13)"/>
<path d="M0 0 C0 29.7 0 59.4 0 90 C-11 89 -11 89 -15 88 C-15 59.62 -15 31.24 -15 2 C-3 0 -3 0 0 0 Z " fill="#9D5025" transform="translate(144,44)"/>
<path d="M0 0 C9 0 9 0 15 1 C15 22.12 15 43.24 15 65 C6 67 6 67 0 67 C0 44.89 0 22.78 0 0 Z " fill="#F48433" transform="translate(81,67)"/>
<path d="M0 0 C0 37.95 0 75.9 0 115 C-2.64 114.67 -5.28 114.34 -8 114 C-8.33 80.67 -8.66 47.34 -9 13 C-10.98 12.01 -12.96 11.02 -15 10 C-15 7.69 -15 5.38 -15 3 C-13.0636296 2.49564306 -11.12585854 1.99666126 -9.1875 1.5 C-8.10855469 1.2215625 -7.02960938 0.943125 -5.91796875 0.65625 C-3 0 -3 0 0 0 Z " fill="#A15225" transform="translate(205,7)"/>
<path d="M0 0 C6.60979186 -0.24942611 12.5107761 0.70215522 19 2 C19 7.28 19 12.56 19 18 C17.02 18 15.04 18 13 18 C13 36.81 13 55.62 13 75 C8.05 75.495 8.05 75.495 3 76 C3 51.25 3 26.5 3 1 C2.01 0.67 1.02 0.34 0 0 Z " fill="#F58534" transform="translate(43,51)"/>
<path d="M0 0 C4.29 0 8.58 0 13 0 C13 10.89 13 21.78 13 33 C8.71 32.34 4.42 31.68 0 31 C0 20.77 0 10.54 0 0 Z " fill="#9C4F24" transform="translate(7,89)"/>
<path d="M0 0 C2.64 0 5.28 0 8 0 C8 10.89 8 21.78 8 33 C5.36 33 2.72 33 0 33 C0 22.11 0 11.22 0 0 Z " fill="#F08335" transform="translate(20,89)"/>
<path d="M0 0 C3.63 0.33 7.26 0.66 11 1 C7.91111478 3.05925681 7.29064073 3.2390374 3.8125 3.125 C1.9253125 3.063125 1.9253125 3.063125 0 3 C0 2.01 0 1.02 0 0 Z " fill="#FAF2EE" transform="translate(169,126)"/>
<path d="M0 0 C0 0.99 0 1.98 0 3 C-3.3 3.33 -6.6 3.66 -10 4 C-4.66666667 0 -4.66666667 0 0 0 Z " fill="#FDECE1" transform="translate(56,126)"/>
</svg>
